<svg width="22" height="13" viewBox="0 0 22 13" fill="none" xmlns="http://www.w3.org/2000/svg">
<path fill-rule="evenodd" clip-rule="evenodd" d="M10.6573 8.6798C9.44224 8.6798 8.45312 7.69069 8.45312 6.47564C8.45312 5.2606 9.44224 4.27148 10.6573 4.27148C11.8723 4.27148 12.8614 5.2606 12.8614 6.47564C12.8614 7.69069 11.8723 8.6798 10.6573 8.6798ZM10.6573 3.1694C8.83429 3.1694 7.35107 4.65262 7.35107 6.47564C7.35107 8.29867 8.83429 9.78188 10.6573 9.78188C12.4803 9.78188 13.9636 8.29867 13.9636 6.47564C13.9636 4.65262 12.4803 3.1694 10.6573 3.1694ZM20.1571 6.66483C18.0631 9.91137 14.5126 11.8492 10.6571 11.8492C6.8017 11.8492 3.25117 9.91137 1.15813 6.66483C1.08466 6.55186 1.08466 6.39941 1.15813 6.28645C3.25117 3.0399 6.8017 1.103 10.6571 1.103C14.5126 1.103 18.0631 3.0399 20.1571 6.28737C20.2296 6.40033 20.2296 6.55186 20.1571 6.66483ZM21.0828 5.68949C18.7868 2.12701 14.8882 0 10.6571 0C6.42605 0 2.52836 2.12701 0.231437 5.68949C-0.0771456 6.16706 -0.0771456 6.78422 0.231437 7.26271C2.52836 10.8243 6.42605 12.9513 10.6571 12.9513C14.8882 12.9513 18.7868 10.8243 21.0828 7.26271C21.3914 6.78514 21.3914 6.16706 21.0828 5.68949Z" fill="#777777"/>
</svg>
