<svg width="824" height="91" viewBox="0 0 824 91" fill="none" xmlns="http://www.w3.org/2000/svg">
<g filter="url(#filter0_d)">
<path fill-rule="evenodd" clip-rule="evenodd" d="M71.3823 7.49748V62.6679H52.782V42.3337H35.6003V62.6679H17V7.49748H35.6003V27.0436H52.782V7.49748H71.3823ZM127.026 48.6389V62.6679H81.1553V7.49748H126.001V21.5265H99.4404V27.9894H122.77V41.3879H99.4404V48.6389H127.026ZM171.556 33.9793C174.498 35.1878 176.797 36.948 178.452 39.2599C180.107 41.5718 180.935 44.1989 180.935 47.1414C180.935 50.6092 179.713 53.6173 177.27 56.1657C174.827 58.714 171.543 60.6581 167.418 61.998C163.294 63.3378 158.709 64.0078 153.665 64.0078C145.626 64.0078 137.981 62.4052 130.73 59.2L136.168 46.3532C138.743 47.4041 141.422 48.2054 144.207 48.7571C146.992 49.3088 149.619 49.5846 152.089 49.5846C155.084 49.5846 157.514 49.1643 159.379 48.3236C161.244 47.4829 162.177 46.2481 162.177 44.6193C162.177 42.4125 160.364 41.3091 156.739 41.3091H141.843V27.9105H155.162C156.739 27.9105 157.934 27.6216 158.749 27.0436C159.563 26.4656 159.97 25.6512 159.97 24.6003C159.97 23.2342 159.248 22.1833 157.803 21.4477C156.358 20.7121 154.453 20.3443 152.089 20.3443C149.882 20.3443 147.491 20.6596 144.917 21.2901C142.342 21.9206 139.899 22.8138 137.587 23.9698L132.149 10.1772C138.244 7.39238 144.864 6 152.01 6C156.791 6 161.218 6.65678 165.29 7.97037C169.362 9.28396 172.62 11.1886 175.063 13.6845C177.507 16.1803 178.728 19.1095 178.728 22.4723C178.728 24.9419 178.098 27.1749 176.837 29.1716C175.576 31.1682 173.815 32.7708 171.556 33.9793ZM226.49 53.0525H205.525L201.821 62.6679H182.905L207.023 7.49748H225.308L249.425 62.6679H230.194L226.49 53.0525ZM221.367 39.654L216.008 25.7825L210.648 39.654H221.367ZM296.95 33.7428C300.051 34.8463 302.415 36.4882 304.044 38.6688C305.673 40.8493 306.487 43.5159 306.487 46.6685C306.487 51.6076 304.53 55.5089 300.615 58.3725C296.701 61.2361 291.171 62.6679 284.025 62.6679H254.548V7.49748H282.527C289.358 7.49748 294.652 8.75851 298.409 11.2806C302.165 13.8027 304.044 17.3493 304.044 21.9206C304.044 24.5478 303.426 26.8597 302.192 28.8563C300.957 30.853 299.21 32.4818 296.95 33.7428ZM272.833 28.6987H280.715C283.762 28.6987 285.286 27.3588 285.286 24.6791C285.286 21.8943 283.762 20.5019 280.715 20.5019H272.833V28.6987ZM283.158 49.6634C286.205 49.6634 287.729 48.1922 287.729 45.2498C287.729 42.4125 286.205 40.9938 283.158 40.9938H272.833V49.6634H283.158ZM313.108 7.49748H331.393V36.1861L350.387 7.49748H367.884V62.6679H349.599V34.0581L330.683 62.6679H313.108V7.49748ZM405.4 63.9289C399.567 63.9289 394.313 62.7073 389.637 60.264C384.96 57.8208 381.296 54.4055 378.642 50.0181C375.989 45.6307 374.662 40.6523 374.662 35.0827C374.662 29.5131 375.989 24.5347 378.642 20.1473C381.296 15.7599 384.96 12.3446 389.637 9.90134C394.313 7.45806 399.567 6.23644 405.4 6.23644C410.759 6.23644 415.541 7.18221 419.744 9.07378C423.948 10.9653 427.415 13.6976 430.148 17.2705L418.404 27.7529C414.989 23.4443 410.969 21.2901 406.346 21.2901C402.457 21.2901 399.331 22.538 396.967 25.0338C394.602 27.5296 393.42 30.8792 393.42 35.0827C393.42 39.2862 394.602 42.6358 396.967 45.1316C399.331 47.6274 402.457 48.8753 406.346 48.8753C410.969 48.8753 414.989 46.721 418.404 42.4125L430.148 52.8949C427.415 56.4678 423.948 59.2 419.744 61.0916C415.541 62.9832 410.759 63.9289 405.4 63.9289ZM435.743 7.49748H454.029V36.1861L473.023 7.49748H490.52V62.6679H472.235V34.0581L453.319 62.6679H435.743V7.49748ZM549.552 62.6679L549.395 37.526L537.415 57.7026H529.218L517.238 38.3929V62.6679H500.293V7.49748H515.583L533.553 36.8954L551.05 7.49748H566.34L566.497 62.6679H549.552ZM604.25 63.9289C598.312 63.9289 592.979 62.6942 588.25 60.2246C583.521 57.7551 579.817 54.3267 577.137 49.9393C574.458 45.5519 573.118 40.5998 573.118 35.0827C573.118 29.5656 574.458 24.6135 577.137 20.2261C579.817 15.8387 583.521 12.4103 588.25 9.94074C592.979 7.4712 598.312 6.23644 604.25 6.23644C610.187 6.23644 615.52 7.4712 620.249 9.94074C624.978 12.4103 628.682 15.8387 631.362 20.2261C634.042 24.6135 635.382 29.5656 635.382 35.0827C635.382 40.5998 634.042 45.5519 631.362 49.9393C628.682 54.3267 624.978 57.7551 620.249 60.2246C615.52 62.6942 610.187 63.9289 604.25 63.9289ZM604.25 48.8753C606.562 48.8753 608.65 48.3105 610.516 47.1808C612.381 46.0511 613.865 44.4485 614.969 42.3731C616.072 40.2976 616.624 37.8675 616.624 35.0827C616.624 32.2979 616.072 29.8678 614.969 27.7923C613.865 25.7168 612.381 24.1143 610.516 22.9846C608.65 21.8549 606.562 21.2901 604.25 21.2901C601.938 21.2901 599.849 21.8549 597.984 22.9846C596.119 24.1143 594.634 25.7168 593.531 27.7923C592.427 29.8678 591.876 32.2979 591.876 35.0827C591.876 37.8675 592.427 40.2976 593.531 42.3731C594.634 44.4485 596.119 46.0511 597.984 47.1808C599.849 48.3105 601.938 48.8753 604.25 48.8753ZM669.824 63.9289C663.991 63.9289 658.737 62.7073 654.061 60.264C649.384 57.8208 645.719 54.4055 643.066 50.0181C640.413 45.6307 639.086 40.6523 639.086 35.0827C639.086 29.5131 640.413 24.5347 643.066 20.1473C645.719 15.7599 649.384 12.3446 654.061 9.90134C658.737 7.45806 663.991 6.23644 669.824 6.23644C675.183 6.23644 679.965 7.18221 684.168 9.07378C688.371 10.9653 691.839 13.6976 694.572 17.2705L682.828 27.7529C679.413 23.4443 675.393 21.2901 670.769 21.2901C666.881 21.2901 663.755 22.538 661.391 25.0338C659.026 27.5296 657.844 30.8792 657.844 35.0827C657.844 39.2862 659.026 42.6358 661.391 45.1316C663.755 47.6274 666.881 48.8753 670.769 48.8753C675.393 48.8753 679.413 46.721 682.828 42.4125L694.572 52.8949C691.839 56.4678 688.371 59.2 684.168 61.0916C679.965 62.9832 675.183 63.9289 669.824 63.9289ZM747.141 21.9206H730.984V62.6679H712.699V21.9206H696.542V7.49748H747.141V21.9206ZM753.289 7.49748H771.574V36.1861L790.568 7.49748H808.065V62.6679H789.78V34.0581L770.864 62.6679H753.289V7.49748Z" fill="white"/>
<path fill-rule="evenodd" clip-rule="evenodd" d="M71.3823 7.49748V62.6679H52.782V42.3337H35.6003V62.6679H17V7.49748H35.6003V27.0436H52.782V7.49748H71.3823ZM127.026 48.6389V62.6679H81.1553V7.49748H126.001V21.5265H99.4404V27.9894H122.77V41.3879H99.4404V48.6389H127.026ZM171.556 33.9793C174.498 35.1878 176.797 36.948 178.452 39.2599C180.107 41.5718 180.935 44.1989 180.935 47.1414C180.935 50.6092 179.713 53.6173 177.27 56.1657C174.827 58.714 171.543 60.6581 167.418 61.998C163.294 63.3378 158.709 64.0078 153.665 64.0078C145.626 64.0078 137.981 62.4052 130.73 59.2L136.168 46.3532C138.743 47.4041 141.422 48.2054 144.207 48.7571C146.992 49.3088 149.619 49.5846 152.089 49.5846C155.084 49.5846 157.514 49.1643 159.379 48.3236C161.244 47.4829 162.177 46.2481 162.177 44.6193C162.177 42.4125 160.364 41.3091 156.739 41.3091H141.843V27.9105H155.162C156.739 27.9105 157.934 27.6216 158.749 27.0436C159.563 26.4656 159.97 25.6512 159.97 24.6003C159.97 23.2342 159.248 22.1833 157.803 21.4477C156.358 20.7121 154.453 20.3443 152.089 20.3443C149.882 20.3443 147.491 20.6596 144.917 21.2901C142.342 21.9206 139.899 22.8138 137.587 23.9698L132.149 10.1772C138.244 7.39238 144.864 6 152.01 6C156.791 6 161.218 6.65678 165.29 7.97037C169.362 9.28396 172.62 11.1886 175.063 13.6845C177.507 16.1803 178.728 19.1095 178.728 22.4723C178.728 24.9419 178.098 27.1749 176.837 29.1716C175.576 31.1682 173.815 32.7708 171.556 33.9793ZM226.49 53.0525H205.525L201.821 62.6679H182.905L207.023 7.49748H225.308L249.425 62.6679H230.194L226.49 53.0525ZM221.367 39.654L216.008 25.7825L210.648 39.654H221.367ZM296.95 33.7428C300.051 34.8463 302.415 36.4882 304.044 38.6688C305.673 40.8493 306.487 43.5159 306.487 46.6685C306.487 51.6076 304.53 55.5089 300.615 58.3725C296.701 61.2361 291.171 62.6679 284.025 62.6679H254.548V7.49748H282.527C289.358 7.49748 294.652 8.75851 298.409 11.2806C302.165 13.8027 304.044 17.3493 304.044 21.9206C304.044 24.5478 303.426 26.8597 302.192 28.8563C300.957 30.853 299.21 32.4818 296.95 33.7428ZM272.833 28.6987H280.715C283.762 28.6987 285.286 27.3588 285.286 24.6791C285.286 21.8943 283.762 20.5019 280.715 20.5019H272.833V28.6987ZM283.158 49.6634C286.205 49.6634 287.729 48.1922 287.729 45.2498C287.729 42.4125 286.205 40.9938 283.158 40.9938H272.833V49.6634H283.158ZM313.108 7.49748H331.393V36.1861L350.387 7.49748H367.884V62.6679H349.599V34.0581L330.683 62.6679H313.108V7.49748ZM405.4 63.9289C399.567 63.9289 394.313 62.7073 389.637 60.264C384.96 57.8208 381.296 54.4055 378.642 50.0181C375.989 45.6307 374.662 40.6523 374.662 35.0827C374.662 29.5131 375.989 24.5347 378.642 20.1473C381.296 15.7599 384.96 12.3446 389.637 9.90134C394.313 7.45806 399.567 6.23644 405.4 6.23644C410.759 6.23644 415.541 7.18221 419.744 9.07378C423.948 10.9653 427.415 13.6976 430.148 17.2705L418.404 27.7529C414.989 23.4443 410.969 21.2901 406.346 21.2901C402.457 21.2901 399.331 22.538 396.967 25.0338C394.602 27.5296 393.42 30.8792 393.42 35.0827C393.42 39.2862 394.602 42.6358 396.967 45.1316C399.331 47.6274 402.457 48.8753 406.346 48.8753C410.969 48.8753 414.989 46.721 418.404 42.4125L430.148 52.8949C427.415 56.4678 423.948 59.2 419.744 61.0916C415.541 62.9832 410.759 63.9289 405.4 63.9289ZM435.743 7.49748H454.029V36.1861L473.023 7.49748H490.52V62.6679H472.235V34.0581L453.319 62.6679H435.743V7.49748ZM549.552 62.6679L549.395 37.526L537.415 57.7026H529.218L517.238 38.3929V62.6679H500.293V7.49748H515.583L533.553 36.8954L551.05 7.49748H566.34L566.497 62.6679H549.552ZM604.25 63.9289C598.312 63.9289 592.979 62.6942 588.25 60.2246C583.521 57.7551 579.817 54.3267 577.137 49.9393C574.458 45.5519 573.118 40.5998 573.118 35.0827C573.118 29.5656 574.458 24.6135 577.137 20.2261C579.817 15.8387 583.521 12.4103 588.25 9.94074C592.979 7.4712 598.312 6.23644 604.25 6.23644C610.187 6.23644 615.52 7.4712 620.249 9.94074C624.978 12.4103 628.682 15.8387 631.362 20.2261C634.042 24.6135 635.382 29.5656 635.382 35.0827C635.382 40.5998 634.042 45.5519 631.362 49.9393C628.682 54.3267 624.978 57.7551 620.249 60.2246C615.52 62.6942 610.187 63.9289 604.25 63.9289ZM604.25 48.8753C606.562 48.8753 608.65 48.3105 610.516 47.1808C612.381 46.0511 613.865 44.4485 614.969 42.3731C616.072 40.2976 616.624 37.8675 616.624 35.0827C616.624 32.2979 616.072 29.8678 614.969 27.7923C613.865 25.7168 612.381 24.1143 610.516 22.9846C608.65 21.8549 606.562 21.2901 604.25 21.2901C601.938 21.2901 599.849 21.8549 597.984 22.9846C596.119 24.1143 594.634 25.7168 593.531 27.7923C592.427 29.8678 591.876 32.2979 591.876 35.0827C591.876 37.8675 592.427 40.2976 593.531 42.3731C594.634 44.4485 596.119 46.0511 597.984 47.1808C599.849 48.3105 601.938 48.8753 604.25 48.8753ZM669.824 63.9289C663.991 63.9289 658.737 62.7073 654.061 60.264C649.384 57.8208 645.719 54.4055 643.066 50.0181C640.413 45.6307 639.086 40.6523 639.086 35.0827C639.086 29.5131 640.413 24.5347 643.066 20.1473C645.719 15.7599 649.384 12.3446 654.061 9.90134C658.737 7.45806 663.991 6.23644 669.824 6.23644C675.183 6.23644 679.965 7.18221 684.168 9.07378C688.371 10.9653 691.839 13.6976 694.572 17.2705L682.828 27.7529C679.413 23.4443 675.393 21.2901 670.769 21.2901C666.881 21.2901 663.755 22.538 661.391 25.0338C659.026 27.5296 657.844 30.8792 657.844 35.0827C657.844 39.2862 659.026 42.6358 661.391 45.1316C663.755 47.6274 666.881 48.8753 670.769 48.8753C675.393 48.8753 679.413 46.721 682.828 42.4125L694.572 52.8949C691.839 56.4678 688.371 59.2 684.168 61.0916C679.965 62.9832 675.183 63.9289 669.824 63.9289ZM747.141 21.9206H730.984V62.6679H712.699V21.9206H696.542V7.49748H747.141V21.9206ZM753.289 7.49748H771.574V36.1861L790.568 7.49748H808.065V62.6679H789.78V34.0581L770.864 62.6679H753.289V7.49748Z" fill="white"/>
</g>
<defs>
<filter id="filter0_d" x="0" y="0" width="823.065" height="90.0078" filterUnits="userSpaceOnUse" color-interpolation-filters="sRGB">
<feFlood flood-opacity="0" result="BackgroundImageFix"/>
<feColorMatrix in="SourceAlpha" type="matrix" values="0 0 0 0 0 0 0 0 0 0 0 0 0 0 0 0 0 0 127 0"/>
<feOffset dx="-1" dy="10"/>
<feGaussianBlur stdDeviation="8"/>
<feColorMatrix type="matrix" values="0 0 0 0 0 0 0 0 0 0 0 0 0 0 0 0 0 0 0.5 0"/>
<feBlend mode="normal" in2="BackgroundImageFix" result="effect1_dropShadow"/>
<feBlend mode="normal" in="SourceGraphic" in2="effect1_dropShadow" result="shape"/>
</filter>
</defs>
</svg>
