<svg width="178" height="59" viewBox="0 0 178 59" fill="none" xmlns="http://www.w3.org/2000/svg">
<path d="M3 46.4809L2.0024 45.3607L0.961802 46.2874L1.80947 47.3934L3 46.4809ZM14.2211 36.4877L15.3956 35.5546L14.4085 34.3122L13.2235 35.3675L14.2211 36.4877ZM35.9103 35.7363L37.309 36.278L38.0997 34.2363H35.9103V35.7363ZM19.4928 35.7363H17.9928V37.2363H19.4928V35.7363ZM19.4928 22.9631V21.4631H17.9928V22.9631H19.4928ZM35.835 22.9631V24.4631H38.0622L37.2249 22.3992L35.835 22.9631ZM14.2211 22.5123L13.2235 23.6325L14.4085 24.6878L15.3956 23.4454L14.2211 22.5123ZM3 12.5191L1.80947 11.6066L0.961802 12.7126L2.0024 13.6393L3 12.5191ZM79.2446 42.995V41.495H77.7446V42.995H79.2446ZM79.2446 56.0351V57.5351H80.7446V56.0351H79.2446ZM61.6145 56.0351H60.1145V57.5351H61.6145V56.0351ZM61.6145 2.96491V1.46491H60.1145V2.96491H61.6145ZM78.9106 17.4386V15.9386H77.4106V17.4386H78.9106ZM78.9106 29.9825H77.4106V31.4825H78.9106V29.9825ZM153.134 46.7857L154.535 46.2507L154.167 45.2857H153.134V46.7857ZM133.146 46.7857V45.2857H132.114L131.745 46.2507L133.146 46.7857ZM129.615 56.0351V57.5351H130.648L131.016 56.5701L129.615 56.0351ZM111.581 56.0351L110.205 55.4388L109.296 57.5351H111.581V56.0351ZM134.574 2.96491V1.46491H133.589L133.198 2.36859L134.574 2.96491ZM152.007 2.96491L153.383 2.36859L152.992 1.46491H152.007V2.96491ZM175 56.0351V57.5351H177.285L176.376 55.4388L175 56.0351ZM156.666 56.0351L155.264 56.5701L155.633 57.5351H156.666V56.0351ZM149.056 34.807V36.307H151.253L150.453 34.2605L149.056 34.807ZM143.771 21.2982L145.168 20.7517L143.771 17.1811L142.374 20.7517L143.771 21.2982ZM138.486 34.807L137.089 34.2605L136.288 36.307H138.486V34.807ZM26.6472 3.5C31.9006 3.5 36.518 4.61603 40.5386 6.8105L41.9759 4.1772C37.4614 1.71318 32.3388 0.5 26.6472 0.5V3.5ZM40.5386 6.8105C44.5658 9.00854 47.7026 12.0688 49.9737 16.0105L52.5731 14.5128C50.0244 10.0892 46.4838 6.63766 41.9759 4.1772L40.5386 6.8105ZM49.9737 16.0105C52.2396 19.943 53.3883 24.4262 53.3883 29.5H56.3883C56.3883 23.9544 55.1271 18.9454 52.5731 14.5128L49.9737 16.0105ZM53.3883 29.5C53.3883 34.5738 52.2396 39.057 49.9737 42.9895L52.5731 44.4872C55.1271 40.0546 56.3883 35.0456 56.3883 29.5H53.3883ZM49.9737 42.9895C47.7026 46.9312 44.5658 49.9915 40.5386 52.1895L41.9759 54.8228C46.4838 52.3623 50.0244 48.9108 52.5731 44.4872L49.9737 42.9895ZM40.5386 52.1895C36.518 54.384 31.9006 55.5 26.6472 55.5V58.5C32.3388 58.5 37.4614 57.2868 41.9759 54.8228L40.5386 52.1895ZM26.6472 55.5C21.7036 55.5 17.3496 54.6302 13.5552 52.9267L12.3265 55.6635C16.5652 57.5665 21.3486 58.5 26.6472 58.5V55.5ZM13.5552 52.9267C9.75946 51.2225 6.64596 48.772 4.19053 45.5684L1.80947 47.3934C4.57553 51.0022 8.0892 53.7611 12.3265 55.6635L13.5552 52.9267ZM3.9976 47.6011L15.2187 37.6079L13.2235 35.3675L2.0024 45.3607L3.9976 47.6011ZM13.0467 37.4208C16.5351 41.8115 20.78 44.1489 25.7435 44.1489V41.1489C21.8706 41.1489 18.434 39.3788 15.3956 35.5546L13.0467 37.4208ZM25.7435 44.1489C28.4569 44.1489 30.8639 43.4821 32.8871 42.0779L31.1766 39.6133C29.7355 40.6136 27.9503 41.1489 25.7435 41.1489V44.1489ZM32.8871 42.0779C34.8944 40.6847 36.3609 38.7263 37.309 36.278L34.5115 35.1947C33.7526 37.1544 32.6335 38.6022 31.1766 39.6133L32.8871 42.0779ZM35.9103 34.2363H19.4928V37.2363H35.9103V34.2363ZM20.9928 35.7363V22.9631H17.9928V35.7363H20.9928ZM19.4928 24.4631H35.835V21.4631H19.4928V24.4631ZM37.2249 22.3992C36.2665 20.0368 34.7742 18.1577 32.7413 16.8248L31.0964 19.3337C32.5779 20.305 33.6964 21.6818 34.445 23.527L37.2249 22.3992ZM32.7413 16.8248C30.7104 15.4933 28.3583 14.8511 25.7435 14.8511V17.8511C27.8481 17.8511 29.6129 18.361 31.0964 19.3337L32.7413 16.8248ZM25.7435 14.8511C20.78 14.8511 16.5351 17.1885 13.0467 21.5792L15.3956 23.4454C18.434 19.6212 21.8706 17.8511 25.7435 17.8511V14.8511ZM15.2187 21.3921L3.9976 11.3989L2.0024 13.6393L13.2235 23.6325L15.2187 21.3921ZM4.19053 13.4316C6.64596 10.228 9.75946 7.7775 13.5552 6.07333L12.3265 3.33651C8.0892 5.23891 4.57553 7.99778 1.80947 11.6066L4.19053 13.4316ZM13.5552 6.07333C17.3496 4.3698 21.7036 3.5 26.6472 3.5V0.5C21.3486 0.5 16.5652 1.43346 12.3265 3.33651L13.5552 6.07333ZM86.7896 4.46491C91.4552 4.46491 95.4448 5.24594 98.7978 6.75832L100.031 4.02363C96.2127 2.30124 91.7858 1.46491 86.7896 1.46491V4.46491ZM98.7978 6.75832C102.144 8.26765 104.672 10.4097 106.444 13.1749L108.97 11.5569C106.856 8.25698 103.857 5.74907 100.031 4.02363L98.7978 6.75832ZM106.444 13.1749C108.213 15.9372 109.12 19.1869 109.12 22.9799H112.12C112.12 18.686 111.085 14.8598 108.97 11.5569L106.444 13.1749ZM109.12 22.9799C109.12 26.773 108.213 30.0227 106.444 32.785L108.97 34.403C111.085 31.1001 112.12 27.2739 112.12 22.9799H109.12ZM106.444 32.785C104.672 35.5502 102.144 37.6922 98.7978 39.2016L100.031 41.9363C103.857 40.2108 106.856 37.7029 108.97 34.403L106.444 32.785ZM98.7978 39.2016C95.4448 40.714 91.4552 41.495 86.7896 41.495V44.495C91.7858 44.495 96.2127 43.6587 100.031 41.9363L98.7978 39.2016ZM86.7896 41.495H79.2446V44.495H86.7896V41.495ZM77.7446 42.995V56.0351H80.7446V42.995H77.7446ZM79.2446 54.5351H61.6145V57.5351H79.2446V54.5351ZM63.1145 56.0351V2.96491H60.1145V56.0351H63.1145ZM61.6145 4.46491H86.7896V1.46491H61.6145V4.46491ZM85.2673 31.4825C87.8368 31.4825 90.0434 30.8893 91.6089 29.438L89.5694 27.2379C88.7697 27.9793 87.4284 28.4825 85.2673 28.4825V31.4825ZM91.6089 29.438C93.1669 27.9938 93.8631 26.0122 93.8631 23.7105H90.8631C90.8631 25.3862 90.3768 26.4895 89.5694 27.2379L91.6089 29.438ZM93.8631 23.7105C93.8631 21.4089 93.1669 19.4272 91.6089 17.983L89.5694 20.1831C90.3768 20.9315 90.8631 22.0348 90.8631 23.7105H93.8631ZM91.6089 17.983C90.0434 16.5317 87.8368 15.9386 85.2673 15.9386V18.9386C87.4284 18.9386 88.7697 19.4418 89.5694 20.1831L91.6089 17.983ZM85.2673 15.9386H78.9106V18.9386H85.2673V15.9386ZM77.4106 17.4386V29.9825H80.4106V17.4386H77.4106ZM78.9106 31.4825H85.2673V28.4825H78.9106V31.4825ZM153.134 45.2857H133.146V48.2857H153.134V45.2857ZM131.745 46.2507L128.214 55.5L131.016 56.5701L134.548 47.3208L131.745 46.2507ZM129.615 54.5351H111.581V57.5351H129.615V54.5351ZM112.957 56.6314L135.951 3.56124L133.198 2.36859L110.205 55.4388L112.957 56.6314ZM134.574 4.46491H152.007V1.46491H134.574V4.46491ZM150.63 3.56124L173.624 56.6314L176.376 55.4388L153.383 2.36859L150.63 3.56124ZM175 54.5351H156.666V57.5351H175V54.5351ZM158.067 55.5L154.535 46.2507L151.733 47.3208L155.264 56.5701L158.067 55.5ZM150.453 34.2605L145.168 20.7517L142.374 21.8447L147.659 35.3535L150.453 34.2605ZM142.374 20.7517L137.089 34.2605L139.883 35.3535L145.168 21.8447L142.374 20.7517ZM138.486 36.307H149.056V33.307H138.486V36.307Z" fill="#DED676"/>
<path d="M3 46.4809L2.0024 45.3607L0.961802 46.2874L1.80947 47.3934L3 46.4809ZM14.2211 36.4877L15.3956 35.5546L14.4085 34.3122L13.2235 35.3675L14.2211 36.4877ZM35.9103 35.7363L37.309 36.278L38.0997 34.2363H35.9103V35.7363ZM19.4928 35.7363H17.9928V37.2363H19.4928V35.7363ZM19.4928 22.9631V21.4631H17.9928V22.9631H19.4928ZM35.835 22.9631V24.4631H38.0622L37.2249 22.3992L35.835 22.9631ZM14.2211 22.5123L13.2235 23.6325L14.4085 24.6878L15.3956 23.4454L14.2211 22.5123ZM3 12.5191L1.80947 11.6066L0.961802 12.7126L2.0024 13.6393L3 12.5191ZM79.2446 42.995V41.495H77.7446V42.995H79.2446ZM79.2446 56.0351V57.5351H80.7446V56.0351H79.2446ZM61.6145 56.0351H60.1145V57.5351H61.6145V56.0351ZM61.6145 2.96491V1.46491H60.1145V2.96491H61.6145ZM78.9106 17.4386V15.9386H77.4106V17.4386H78.9106ZM78.9106 29.9825H77.4106V31.4825H78.9106V29.9825ZM153.134 46.7857L154.535 46.2507L154.167 45.2857H153.134V46.7857ZM133.146 46.7857V45.2857H132.114L131.745 46.2507L133.146 46.7857ZM129.615 56.0351V57.5351H130.648L131.016 56.5701L129.615 56.0351ZM111.581 56.0351L110.205 55.4388L109.296 57.5351H111.581V56.0351ZM134.574 2.96491V1.46491H133.589L133.198 2.36859L134.574 2.96491ZM152.007 2.96491L153.383 2.36859L152.992 1.46491H152.007V2.96491ZM175 56.0351V57.5351H177.285L176.376 55.4388L175 56.0351ZM156.666 56.0351L155.264 56.5701L155.633 57.5351H156.666V56.0351ZM149.056 34.807V36.307H151.253L150.453 34.2605L149.056 34.807ZM143.771 21.2982L145.168 20.7517L143.771 17.1811L142.374 20.7517L143.771 21.2982ZM138.486 34.807L137.089 34.2605L136.288 36.307H138.486V34.807ZM26.6472 3.5C31.9006 3.5 36.518 4.61603 40.5386 6.8105L41.9759 4.1772C37.4614 1.71318 32.3388 0.5 26.6472 0.5V3.5ZM40.5386 6.8105C44.5658 9.00854 47.7026 12.0688 49.9737 16.0105L52.5731 14.5128C50.0244 10.0892 46.4838 6.63766 41.9759 4.1772L40.5386 6.8105ZM49.9737 16.0105C52.2396 19.943 53.3883 24.4262 53.3883 29.5H56.3883C56.3883 23.9544 55.1271 18.9454 52.5731 14.5128L49.9737 16.0105ZM53.3883 29.5C53.3883 34.5738 52.2396 39.057 49.9737 42.9895L52.5731 44.4872C55.1271 40.0546 56.3883 35.0456 56.3883 29.5H53.3883ZM49.9737 42.9895C47.7026 46.9312 44.5658 49.9915 40.5386 52.1895L41.9759 54.8228C46.4838 52.3623 50.0244 48.9108 52.5731 44.4872L49.9737 42.9895ZM40.5386 52.1895C36.518 54.384 31.9006 55.5 26.6472 55.5V58.5C32.3388 58.5 37.4614 57.2868 41.9759 54.8228L40.5386 52.1895ZM26.6472 55.5C21.7036 55.5 17.3496 54.6302 13.5552 52.9267L12.3265 55.6635C16.5652 57.5665 21.3486 58.5 26.6472 58.5V55.5ZM13.5552 52.9267C9.75946 51.2225 6.64596 48.772 4.19053 45.5684L1.80947 47.3934C4.57553 51.0022 8.0892 53.7611 12.3265 55.6635L13.5552 52.9267ZM3.9976 47.6011L15.2187 37.6079L13.2235 35.3675L2.0024 45.3607L3.9976 47.6011ZM13.0467 37.4208C16.5351 41.8115 20.78 44.1489 25.7435 44.1489V41.1489C21.8706 41.1489 18.434 39.3788 15.3956 35.5546L13.0467 37.4208ZM25.7435 44.1489C28.4569 44.1489 30.8639 43.4821 32.8871 42.0779L31.1766 39.6133C29.7355 40.6136 27.9503 41.1489 25.7435 41.1489V44.1489ZM32.8871 42.0779C34.8944 40.6847 36.3609 38.7263 37.309 36.278L34.5115 35.1947C33.7526 37.1544 32.6335 38.6022 31.1766 39.6133L32.8871 42.0779ZM35.9103 34.2363H19.4928V37.2363H35.9103V34.2363ZM20.9928 35.7363V22.9631H17.9928V35.7363H20.9928ZM19.4928 24.4631H35.835V21.4631H19.4928V24.4631ZM37.2249 22.3992C36.2665 20.0368 34.7742 18.1577 32.7413 16.8248L31.0964 19.3337C32.5779 20.305 33.6964 21.6818 34.445 23.527L37.2249 22.3992ZM32.7413 16.8248C30.7104 15.4933 28.3583 14.8511 25.7435 14.8511V17.8511C27.8481 17.8511 29.6129 18.361 31.0964 19.3337L32.7413 16.8248ZM25.7435 14.8511C20.78 14.8511 16.5351 17.1885 13.0467 21.5792L15.3956 23.4454C18.434 19.6212 21.8706 17.8511 25.7435 17.8511V14.8511ZM15.2187 21.3921L3.9976 11.3989L2.0024 13.6393L13.2235 23.6325L15.2187 21.3921ZM4.19053 13.4316C6.64596 10.228 9.75946 7.7775 13.5552 6.07333L12.3265 3.33651C8.0892 5.23891 4.57553 7.99778 1.80947 11.6066L4.19053 13.4316ZM13.5552 6.07333C17.3496 4.3698 21.7036 3.5 26.6472 3.5V0.5C21.3486 0.5 16.5652 1.43346 12.3265 3.33651L13.5552 6.07333ZM86.7896 4.46491C91.4552 4.46491 95.4448 5.24594 98.7978 6.75832L100.031 4.02363C96.2127 2.30124 91.7858 1.46491 86.7896 1.46491V4.46491ZM98.7978 6.75832C102.144 8.26765 104.672 10.4097 106.444 13.1749L108.97 11.5569C106.856 8.25698 103.857 5.74907 100.031 4.02363L98.7978 6.75832ZM106.444 13.1749C108.213 15.9372 109.12 19.1869 109.12 22.9799H112.12C112.12 18.686 111.085 14.8598 108.97 11.5569L106.444 13.1749ZM109.12 22.9799C109.12 26.773 108.213 30.0227 106.444 32.785L108.97 34.403C111.085 31.1001 112.12 27.2739 112.12 22.9799H109.12ZM106.444 32.785C104.672 35.5502 102.144 37.6922 98.7978 39.2016L100.031 41.9363C103.857 40.2108 106.856 37.7029 108.97 34.403L106.444 32.785ZM98.7978 39.2016C95.4448 40.714 91.4552 41.495 86.7896 41.495V44.495C91.7858 44.495 96.2127 43.6587 100.031 41.9363L98.7978 39.2016ZM86.7896 41.495H79.2446V44.495H86.7896V41.495ZM77.7446 42.995V56.0351H80.7446V42.995H77.7446ZM79.2446 54.5351H61.6145V57.5351H79.2446V54.5351ZM63.1145 56.0351V2.96491H60.1145V56.0351H63.1145ZM61.6145 4.46491H86.7896V1.46491H61.6145V4.46491ZM85.2673 31.4825C87.8368 31.4825 90.0434 30.8893 91.6089 29.438L89.5694 27.2379C88.7697 27.9793 87.4284 28.4825 85.2673 28.4825V31.4825ZM91.6089 29.438C93.1669 27.9938 93.8631 26.0122 93.8631 23.7105H90.8631C90.8631 25.3862 90.3768 26.4895 89.5694 27.2379L91.6089 29.438ZM93.8631 23.7105C93.8631 21.4089 93.1669 19.4272 91.6089 17.983L89.5694 20.1831C90.3768 20.9315 90.8631 22.0348 90.8631 23.7105H93.8631ZM91.6089 17.983C90.0434 16.5317 87.8368 15.9386 85.2673 15.9386V18.9386C87.4284 18.9386 88.7697 19.4418 89.5694 20.1831L91.6089 17.983ZM85.2673 15.9386H78.9106V18.9386H85.2673V15.9386ZM77.4106 17.4386V29.9825H80.4106V17.4386H77.4106ZM78.9106 31.4825H85.2673V28.4825H78.9106V31.4825ZM153.134 45.2857H133.146V48.2857H153.134V45.2857ZM131.745 46.2507L128.214 55.5L131.016 56.5701L134.548 47.3208L131.745 46.2507ZM129.615 54.5351H111.581V57.5351H129.615V54.5351ZM112.957 56.6314L135.951 3.56124L133.198 2.36859L110.205 55.4388L112.957 56.6314ZM134.574 4.46491H152.007V1.46491H134.574V4.46491ZM150.63 3.56124L173.624 56.6314L176.376 55.4388L153.383 2.36859L150.63 3.56124ZM175 54.5351H156.666V57.5351H175V54.5351ZM158.067 55.5L154.535 46.2507L151.733 47.3208L155.264 56.5701L158.067 55.5ZM150.453 34.2605L145.168 20.7517L142.374 21.8447L147.659 35.3535L150.453 34.2605ZM142.374 20.7517L137.089 34.2605L139.883 35.3535L145.168 21.8447L142.374 20.7517ZM138.486 36.307H149.056V33.307H138.486V36.307Z" fill="#DED676"/>
</svg>
